<svg width="51" height="37" viewBox="0 0 51 37" fill="none" xmlns="http://www.w3.org/2000/svg">
<path d="M12.8959 27.6667C14.691 27.6667 16.4388 27.8668 18.1392 28.2671C19.8381 28.6689 21.5278 29.2709 23.2084 30.0729V7.50002C21.6424 6.58335 19.9809 5.89585 18.224 5.43752C16.467 4.97919 14.691 4.75002 12.8959 4.75002C11.5209 4.75002 10.1558 4.8837 8.80064 5.15106C7.44398 5.41842 6.13544 5.81946 4.87502 6.35419V29.0417C6.21183 28.5834 7.53946 28.2396 8.85794 28.0104C10.1749 27.7813 11.5209 27.6667 12.8959 27.6667ZM27.7917 30.0729C29.4722 29.2709 31.1627 28.6689 32.8631 28.2671C34.562 27.8668 36.309 27.6667 38.1042 27.6667C39.4792 27.6667 40.8259 27.7813 42.1444 28.0104C43.4613 28.2396 44.7882 28.5834 46.125 29.0417V6.35419C44.8646 5.81946 43.5568 5.41842 42.2017 5.15106C40.845 4.8837 39.4792 4.75002 38.1042 4.75002C36.309 4.75002 34.533 4.97919 32.7761 5.43752C31.0191 5.89585 29.3577 6.58335 27.7917 7.50002V30.0729ZM25.5 36.8334C23.6667 35.382 21.6806 34.2552 19.5417 33.4531C17.4028 32.6511 15.1875 32.25 12.8959 32.25C11.2917 32.25 9.71655 32.4601 8.17044 32.8802C6.6228 33.3004 5.14238 33.8924 3.72919 34.6563C2.9271 35.0764 2.15405 35.0573 1.41002 34.599C0.664465 34.1406 0.291687 33.4722 0.291687 32.5938V4.97919C0.291687 4.55905 0.397104 4.15801 0.607937 3.77606C0.817243 3.39412 1.13196 3.10766 1.5521 2.91669C3.30905 2.00002 5.14238 1.31252 7.0521 0.854187C8.96183 0.395854 10.9097 0.166687 12.8959 0.166687C15.1111 0.166687 17.279 0.453145 19.3996 1.02606C21.5186 1.59898 23.5521 2.45835 25.5 3.60419C27.4479 2.45835 29.4822 1.59898 31.6027 1.02606C33.7218 0.453145 35.8889 0.166687 38.1042 0.166687C40.0903 0.166687 42.0382 0.395854 43.9479 0.854187C45.8577 1.31252 47.691 2.00002 49.4479 2.91669C49.8681 3.10766 50.1836 3.39412 50.3944 3.77606C50.6037 4.15801 50.7084 4.55905 50.7084 4.97919V32.5938C50.7084 33.4722 50.3363 34.1406 49.5923 34.599C48.8468 35.0573 48.0729 35.0764 47.2709 34.6563C45.8577 33.8924 44.3772 33.3004 42.8296 32.8802C41.2835 32.4601 39.7084 32.25 38.1042 32.25C35.8125 32.25 33.5972 32.6511 31.4584 33.4531C29.3195 34.2552 27.3334 35.382 25.5 36.8334Z" fill="#1C1B1F"/>
</svg>
