<svg width="93" height="68" viewBox="0 0 93 68" fill="none" xmlns="http://www.w3.org/2000/svg">
<path d="M20.9705 67.8818C17.4754 67.8818 14.5046 66.6586 12.058 64.212C9.61146 61.7655 8.38818 58.7946 8.38818 55.2996H0V9.16455C0 6.8578 0.822042 4.88378 2.46613 3.24249C4.10741 1.59841 6.08143 0.776367 8.38818 0.776367H67.1055V17.5527H79.6877L92.27 34.3291V55.2996H83.8818C83.8818 58.7946 82.6586 61.7655 80.212 64.212C77.7655 66.6586 74.7946 67.8818 71.2996 67.8818C67.8045 67.8818 64.8337 66.6586 62.3871 64.212C59.9406 61.7655 58.7173 58.7946 58.7173 55.2996H33.5527C33.5527 58.7946 32.3295 61.7655 29.8829 64.212C27.4364 66.6586 24.4655 67.8818 20.9705 67.8818ZM20.9705 59.4937C22.1588 59.4937 23.1556 59.091 23.9608 58.2858C24.7633 57.4833 25.1646 56.4879 25.1646 55.2996C25.1646 54.1112 24.7633 53.1158 23.9608 52.3134C23.1556 51.5081 22.1588 51.1055 20.9705 51.1055C19.7821 51.1055 18.7853 51.5081 17.9801 52.3134C17.1776 53.1158 16.7764 54.1112 16.7764 55.2996C16.7764 56.4879 17.1776 57.4833 17.9801 58.2858C18.7853 59.091 19.7821 59.4937 20.9705 59.4937ZM8.38818 46.9114H11.7435C12.9318 45.6531 14.2949 44.6396 15.8327 43.8707C17.3705 43.1017 19.0831 42.7173 20.9705 42.7173C22.8578 42.7173 24.5704 43.1017 26.1082 43.8707C27.6461 44.6396 29.0091 45.6531 30.1975 46.9114H58.7173V9.16455H8.38818V46.9114ZM71.2996 59.4937C72.4879 59.4937 73.4833 59.091 74.2858 58.2858C75.091 57.4833 75.4937 56.4879 75.4937 55.2996C75.4937 54.1112 75.091 53.1158 74.2858 52.3134C73.4833 51.5081 72.4879 51.1055 71.2996 51.1055C70.1112 51.1055 69.1158 51.5081 68.3134 52.3134C67.5081 53.1158 67.1055 54.1112 67.1055 55.2996C67.1055 56.4879 67.5081 57.4833 68.3134 58.2858C69.1158 59.091 70.1112 59.4937 71.2996 59.4937ZM67.1055 38.5232H84.9304L75.4937 25.9409H67.1055V38.5232Z" fill="#1C1B1F"/>
</svg>
