<svg width="110" height="90" viewBox="0 0 110 90" fill="none" xmlns="http://www.w3.org/2000/svg">
<g clip-path="url(#clip0_1_2)">
<rect width="110" height="90" fill="white"/>
<mask id="mask0_1_2" style="mask-type:alpha" maskUnits="userSpaceOnUse" x="20" y="-4" width="98" height="98">
<rect x="20" y="-4" width="97.9824" height="97.9824" fill="#D9D9D9"/>
</mask>
<g mask="url(#mask0_1_2)">
<path d="M68.9915 20.4956C66.7461 20.4956 64.8246 19.6954 63.2269 18.0951C61.6265 16.4974 60.8263 14.5759 60.8263 12.3304C60.8263 10.085 61.6265 8.16209 63.2269 6.56171C64.8246 4.96405 66.7461 4.16522 68.9915 4.16522C71.237 4.16522 73.1599 4.96405 74.7603 6.56171C76.3579 8.16209 77.1567 10.085 77.1567 12.3304C77.1567 14.5759 76.3579 16.4974 74.7603 18.0951C73.1599 19.6954 71.237 20.4956 68.9915 20.4956ZM56.7437 85.8172V32.7434C52.6611 32.4032 48.5105 31.8929 44.2918 31.2125C40.0731 30.532 36.0586 29.6815 32.2481 28.6608L34.2894 20.4956C39.5968 21.9245 45.2444 22.9615 51.2322 23.6066C57.22 24.2543 63.1398 24.5782 68.9915 24.5782C74.8433 24.5782 80.7631 24.2543 86.7509 23.6066C92.7387 22.9615 98.3863 21.9245 103.694 20.4956L105.735 28.6608C101.925 29.6815 97.91 30.532 93.6913 31.2125C89.4726 31.8929 85.322 32.4032 81.2393 32.7434V85.8172H73.0742V61.3216H64.9089V85.8172H56.7437Z" fill="#1C1B1F"/>
</g>
<mask id="mask1_1_2" style="mask-type:alpha" maskUnits="userSpaceOnUse" x="8" y="51" width="39" height="39">
<rect x="8" y="51" width="38.4512" height="38.4512" fill="#D9D9D9"/>
</mask>
<g mask="url(#mask1_1_2)">
<path d="M12.8064 83.0426V64.9385C12.3525 64.6448 11.9722 64.271 11.6657 63.817C11.3581 63.3631 11.2043 62.8291 11.2043 62.2149V57.4085C11.2043 56.5273 11.5183 55.7727 12.1463 55.1447C12.7733 54.5177 13.5274 54.2043 14.4085 54.2043H40.0427C40.9238 54.2043 41.6784 54.5177 42.3065 55.1447C42.9334 55.7727 43.2469 56.5273 43.2469 57.4085V62.2149C43.2469 62.8291 43.0931 63.3631 42.7855 63.817C42.479 64.271 42.0987 64.6448 41.6448 64.9385V83.0426C41.6448 83.9238 41.3313 84.6784 40.7043 85.3064C40.0763 85.9334 39.3217 86.2469 38.4405 86.2469H16.0107C15.1295 86.2469 14.3749 85.9334 13.7469 85.3064C13.1199 84.6784 12.8064 83.9238 12.8064 83.0426ZM16.0107 65.4192V83.0426H38.4405V65.4192H16.0107ZM40.0427 62.2149V57.4085H14.4085V62.2149H40.0427ZM22.4192 73.4298H32.032V70.2256H22.4192V73.4298Z" fill="#1C1B1F"/>
</g>
</g>
<defs>
<clipPath id="clip0_1_2">
<rect width="110" height="90" fill="white"/>
</clipPath>
</defs>
</svg>
