<svg width="81" height="90" viewBox="0 0 81 90" fill="none" xmlns="http://www.w3.org/2000/svg">
<g clip-path="url(#clip0_1_2)">
<rect width="81" height="90" fill="white"/>
<mask id="mask0_1_2" style="mask-type:alpha" maskUnits="userSpaceOnUse" x="0" y="0" width="90" height="90">
<rect width="90" height="90" fill="#D9D9D9"/>
</mask>
<g mask="url(#mask0_1_2)">
<path d="M11.25 82.5001V45.0001L17.1562 27.6563C17.6562 26.0313 18.5937 24.7651 19.9687 23.8576C21.3437 22.9526 22.8125 22.5001 24.375 22.5001C24.875 22.5001 25.375 22.5463 25.875 22.6388C26.375 22.7338 26.875 22.9063 27.375 23.1563L42.9375 30.0001H52.5V37.5001H41.25L31.125 33.0938L26.25 47.8126V82.5001H11.25ZM33.75 71.2501V63.7501H78.75V71.2501H33.75ZM73.125 60.0001C71.5625 60.0001 70.235 59.4526 69.1425 58.3576C68.0475 57.2651 67.5 55.9376 67.5 54.3751C67.5 52.8126 68.0475 51.4851 69.1425 50.3926C70.235 49.2976 71.5625 48.7501 73.125 48.7501C74.6875 48.7501 76.015 49.2976 77.1075 50.3926C78.2025 51.4851 78.75 52.8126 78.75 54.3751C78.75 55.9376 78.2025 57.2651 77.1075 58.3576C76.015 59.4526 74.6875 60.0001 73.125 60.0001ZM48.75 60.0001C46.6875 60.0001 44.9225 59.2651 43.455 57.7951C41.985 56.3276 41.25 54.5626 41.25 52.5001V48.7501H33.75V41.2501H45C46.0625 41.2501 46.9538 41.6088 47.6738 42.3263C48.3913 43.0463 48.75 43.9376 48.75 45.0001V48.7501H56.25V41.2501H63.75V52.5001C63.75 54.5626 63.0163 56.3276 61.5488 57.7951C60.0788 59.2651 58.3125 60.0001 56.25 60.0001H48.75ZM30 18.7501C27.9375 18.7501 26.1725 18.0151 24.705 16.5451C23.235 15.0776 22.5 13.3126 22.5 11.2501C22.5 9.18756 23.235 7.42131 24.705 5.95131C26.1725 4.48381 27.9375 3.75006 30 3.75006C32.0625 3.75006 33.8288 4.48381 35.2988 5.95131C36.7663 7.42131 37.5 9.18756 37.5 11.2501C37.5 13.3126 36.7663 15.0776 35.2988 16.5451C33.8288 18.0151 32.0625 18.7501 30 18.7501Z" fill="#1C1B1F"/>
</g>
<rect x="30.731" y="40.6097" width="54.8781" height="34.0244" fill="white"/>
<mask id="mask1_1_2" style="mask-type:alpha" maskUnits="userSpaceOnUse" x="38" y="49" width="40" height="39">
<rect x="38.9355" y="49" width="39" height="39" fill="#D9D9D9"/>
</mask>
<g mask="url(#mask1_1_2)">
<path d="M43.8112 81.5V63.1375C43.3508 62.8396 42.9651 62.4604 42.6542 62C42.3422 61.5396 42.1862 60.9979 42.1862 60.375V55.5C42.1862 54.6063 42.5047 53.8409 43.1417 53.2039C43.7776 52.568 44.5425 52.25 45.4362 52.25H71.4362C72.33 52.25 73.0953 52.568 73.7323 53.2039C74.3683 53.8409 74.6862 54.6063 74.6862 55.5V60.375C74.6862 60.9979 74.5302 61.5396 74.2182 62C73.9073 62.4604 73.5216 62.8396 73.0612 63.1375V81.5C73.0612 82.3938 72.7433 83.1592 72.1073 83.7962C71.4703 84.4321 70.705 84.75 69.8112 84.75H47.0612C46.1675 84.75 45.4021 84.4321 44.7651 83.7962C44.1292 83.1592 43.8112 82.3938 43.8112 81.5ZM47.0612 63.625V81.5H69.8112V63.625H47.0612ZM71.4362 60.375V55.5H45.4362V60.375H71.4362ZM53.5612 71.75H63.3112V68.5H53.5612V71.75Z" fill="#1C1B1F"/>
</g>
</g>
<defs>
<clipPath id="clip0_1_2">
<rect width="81" height="90" fill="white"/>
</clipPath>
</defs>
</svg>
