<svg width="84" height="75" viewBox="0 0 84 75" fill="none" xmlns="http://www.w3.org/2000/svg">
<path d="M17.6511 74.9004C15.3286 74.9004 13.3544 74.0875 11.7287 72.4617C10.1029 70.836 9.29004 68.8618 9.29004 66.5393C9.29004 64.9136 9.75454 63.3838 10.6835 61.95C11.6125 60.5194 12.8512 59.4944 14.3996 58.875L32.5151 51.6753V41.224C28.3346 46.1012 23.4775 49.8358 17.9437 52.4278C12.4068 55.0228 6.42561 56.3203 0 56.3203V47.0302C5.26436 47.0302 10.0456 45.9464 14.3438 43.7787C18.6389 41.6111 22.5283 38.5144 26.0121 34.4887L32.2829 27.0567C33.2119 25.9728 34.2957 25.1599 35.5344 24.618C36.7731 24.0761 38.0892 23.8051 39.4827 23.8051H44.1277C45.5212 23.8051 46.8373 24.0761 48.076 24.618C49.3146 25.1599 50.3985 25.9728 51.3275 27.0567L57.5982 34.4887C61.082 38.5144 64.973 41.6111 69.2712 43.7787C73.5663 45.9464 78.346 47.0302 83.6104 47.0302V56.3203C77.1847 56.3203 71.2051 55.0228 65.6713 52.4278C60.1344 49.8358 55.2757 46.1012 51.0952 41.224V51.6753L69.2108 58.875C70.7591 59.4944 71.9978 60.5194 72.9268 61.95C73.8558 63.3838 74.3203 64.9136 74.3203 66.5393C74.3203 68.8618 73.5074 70.836 71.8817 72.4617C70.2559 74.0875 68.2818 74.9004 65.9593 74.9004H32.5151V72.5779C32.5151 70.565 33.1732 68.9005 34.4893 67.5844C35.8054 66.2684 37.4698 65.6103 39.4827 65.6103H53.4177C54.1145 65.6103 54.6765 65.3982 55.1039 64.974C55.5281 64.5466 55.7402 63.9846 55.7402 63.2878C55.7402 62.5911 55.5281 62.029 55.1039 61.6017C54.6765 61.1774 54.1145 60.9653 53.4177 60.9653H39.4827C36.2312 60.9653 33.4828 62.0878 31.2378 64.3329C28.9927 66.578 27.8701 69.3263 27.8701 72.5779V74.9004H17.6511ZM41.8052 19.1601C39.2504 19.1601 37.0642 18.2497 35.2464 16.4289C33.4256 14.6111 32.5151 12.4248 32.5151 9.87009C32.5151 7.31533 33.4256 5.12907 35.2464 3.31132C37.0642 1.49047 39.2504 0.580048 41.8052 0.580048C44.3599 0.580048 46.5477 1.49047 48.3686 3.31132C50.1863 5.12907 51.0952 7.31533 51.0952 9.87009C51.0952 12.4248 50.1863 14.6111 48.3686 16.4289C46.5477 18.2497 44.3599 19.1601 41.8052 19.1601Z" fill="#1B1F1E"/>
</svg>
