<svg width="80" height="72" viewBox="0 0 80 72" fill="none" xmlns="http://www.w3.org/2000/svg">
<path d="M36.0009 72V64H68.0009V35.6C68.0009 31.7333 67.2675 28.1 65.8009 24.7C64.3342 21.3 62.3342 18.3333 59.8009 15.8C57.2675 13.2667 54.3009 11.2667 50.9009 9.8C47.5009 8.33333 43.8675 7.6 40.0009 7.6C36.1342 7.6 32.5009 8.33333 29.1009 9.8C25.7009 11.2667 22.7342 13.2667 20.2009 15.8C17.6675 18.3333 15.6675 21.3 14.2009 24.7C12.7342 28.1 12.0009 31.7333 12.0009 35.6V60H8.00085C5.80085 60 3.91819 59.2173 2.35285 57.652C0.784855 56.084 0.000854492 54.2 0.000854492 52V44C0.000854492 42.4667 0.367522 41.116 1.10085 39.948C1.83419 38.7827 2.80085 37.8333 4.00085 37.1L4.30085 31.8C4.90085 26.9333 6.28485 22.5333 8.45285 18.6C10.6182 14.6667 13.3182 11.3333 16.5529 8.6C19.7849 5.86667 23.4182 3.74933 27.4529 2.248C31.4849 0.749334 35.6675 0 40.0009 0C44.4009 0 48.6182 0.749334 52.6529 2.248C56.6849 3.74933 60.3009 5.88267 63.5009 8.648C66.7009 11.416 69.3849 14.7493 71.5529 18.648C73.7182 22.5493 75.1009 26.9 75.7009 31.7L76.0009 36.9C77.2009 37.5 78.1675 38.3827 78.9009 39.548C79.6342 40.716 80.0009 42 80.0009 43.4V52.6C80.0009 54.0667 79.6342 55.3667 78.9009 56.5C78.1675 57.6333 77.2009 58.5 76.0009 59.1V64C76.0009 66.2 75.2182 68.084 73.6529 69.652C72.0849 71.2173 70.2009 72 68.0009 72H36.0009ZM28.0009 44C26.8675 44 25.9182 43.616 25.1529 42.848C24.3849 42.0827 24.0009 41.1333 24.0009 40C24.0009 38.8667 24.3849 37.916 25.1529 37.148C25.9182 36.3827 26.8675 36 28.0009 36C29.1342 36 30.0849 36.3827 30.8529 37.148C31.6182 37.916 32.0009 38.8667 32.0009 40C32.0009 41.1333 31.6182 42.0827 30.8529 42.848C30.0849 43.616 29.1342 44 28.0009 44ZM52.0009 44C50.8675 44 49.9182 43.616 49.1529 42.848C48.3849 42.0827 48.0009 41.1333 48.0009 40C48.0009 38.8667 48.3849 37.916 49.1529 37.148C49.9182 36.3827 50.8675 36 52.0009 36C53.1342 36 54.0849 36.3827 54.8529 37.148C55.6182 37.916 56.0009 38.8667 56.0009 40C56.0009 41.1333 55.6182 42.0827 54.8529 42.848C54.0849 43.616 53.1342 44 52.0009 44ZM16.1009 37.8C15.8342 33.8667 16.3849 30.3 17.7529 27.1C19.1182 23.9 20.9502 21.1827 23.2489 18.948C25.5502 16.716 28.2009 15 31.2009 13.8C34.2009 12.6 37.2009 12 40.2009 12C46.2675 12 51.5182 13.9173 55.9529 17.752C60.3849 21.584 63.0675 26.3667 64.0009 32.1C57.7342 32.0333 52.0675 30.3493 47.0009 27.048C41.9342 23.7493 38.1009 19.4667 35.5009 14.2C34.4342 19.6 32.1849 24.3827 28.7529 28.548C25.3182 32.716 21.1009 35.8 16.1009 37.8Z" fill="#1C1B1F"/>
</svg>
